<svg width="192" height="166" viewBox="0 0 292 266" fill="none" xmlns="http://www.w3.org/2000/svg">
<g filter="url(#filter0_d_12_2)">
<circle cx="133" cy="129" r="129" fill="#05042B"/>
<circle cx="133" cy="129" r="124" stroke="url(#paint0_radial_12_2)" stroke-width="10"/>
</g>
<path d="M61.75 93.645H98.61V96.02H64.22V161H61.75V93.645ZM66.69 161V98.49H98.61V100.96H69.065V161H66.69ZM71.63 161V103.335H98.61V105.805H74.005V123.19H90.63V125.565H74.005V128.035H90.63V130.41H74.005V132.88H90.63V135.255H74.005V161H71.63ZM115.357 93.645H112.887L128.847 161H131.317L115.357 93.645ZM120.202 93.645H117.827L133.692 161H136.162L120.202 93.645ZM156.397 93.645H154.022L139.772 156.06L138.822 151.88L138.537 150.74L151.457 93.645H149.272L137.397 145.61L136.542 142.475L136.162 140.29L146.707 93.645H144.332L134.832 135.16L125.142 93.645H122.577L133.692 140.29L134.262 142.285L134.832 145.42L135.402 147.415L136.162 150.645L136.447 151.69L137.397 155.87L137.587 157.01L138.727 161H141.102L156.397 93.645ZM206.71 126.42C209.085 123.57 210.51 120.055 210.985 116.16C211.46 112.265 210.89 108.18 209.275 104.76C206.14 97.825 199.585 93.835 191.415 93.835H170.61V161H191.225C198.16 161 203.955 157.96 207.565 152.45C209.56 149.315 210.795 145.515 211.08 141.525C211.27 137.63 210.605 133.735 209.085 130.315C208.99 130.125 208.135 128.035 206.71 126.42ZM208.705 141.43C208.42 144.945 207.375 148.365 205.57 151.12C204.05 153.4 202.15 155.3 199.87 156.535C197.305 157.96 194.455 158.625 191.225 158.625H172.985V96.21H191.415C195.215 96.21 198.635 97.16 201.39 98.965C203.86 100.58 205.855 102.86 207.09 105.71C208.515 108.75 209.085 112.36 208.61 115.875C208.23 119.485 206.805 122.715 204.62 125.28C204.525 125.375 199.87 130.885 191.32 130.885L182.39 130.79H180.015V151.69H191.415C195.5 151.69 198.92 149.505 200.63 145.705C202.72 141.145 202.055 135.35 199.015 131.835C199.775 131.455 200.535 131.17 201.2 130.79C201.58 131.17 202.055 132.025 202.34 132.595C203.575 134.97 204.145 137.63 204.145 140.48C204.05 143.33 203.29 145.99 201.96 148.27C200.345 150.835 197.21 153.97 191.32 153.97H182.39H177.64V100.865H191.415C194.455 100.865 197.115 101.625 199.3 103.24C201.2 104.665 202.625 106.66 203.385 109.035C204.24 111.6 204.335 114.45 203.67 117.11C202.91 119.865 201.485 122.145 199.3 123.76L199.205 123.855C199.11 123.95 196.545 126.23 190.275 126.23H180.015V128.605H190.275C197.21 128.605 200.25 126.04 200.82 125.565C205.76 121.765 207.755 114.735 205.665 108.275C203.575 102.195 198.255 98.49 191.415 98.49H175.265V156.345H191.32C196.735 156.345 201.2 153.875 203.955 149.505C207.09 144.28 207.28 137.06 204.43 131.55C204.335 131.265 203.765 130.315 203.29 129.555C203.955 129.08 204.62 128.605 205.095 128.13C206.14 129.555 206.9 131.265 206.9 131.265C208.325 134.4 208.895 137.82 208.705 141.43ZM199.205 120.625C200.915 118.82 201.865 116.255 201.865 113.5C201.865 110.84 200.915 108.275 199.205 106.375C197.305 104.19 194.645 103.05 191.415 103.05H180.015V123.95H191.415C194.645 123.95 197.305 122.81 199.205 120.625ZM182.39 121.575V105.425H191.415C195.31 105.425 199.49 107.99 199.49 113.5C199.49 115.685 198.73 117.68 197.495 119.105C195.975 120.72 193.885 121.575 191.415 121.575H182.39ZM197.115 133.26C199.585 136.11 200.155 141.05 198.54 144.66C197.685 146.465 195.785 149.315 191.415 149.315H182.39V133.165H191.32C193.22 133.165 195.025 132.975 196.545 132.595L197.115 133.26Z" fill="url(#paint1_linear_12_2)"/>
<defs>
<filter id="filter0_d_12_2" x="0" y="0" width="266" height="266" filterUnits="userSpaceOnUse" color-interpolation-filters="sRGB">
<feFlood flood-opacity="0" result="BackgroundImageFix"/>
<feColorMatrix in="SourceAlpha" type="matrix" values="0 0 0 0 0 0 0 0 0 0 0 0 0 0 0 0 0 0 127 0" result="hardAlpha"/>
<feOffset dy="4"/>
<feGaussianBlur stdDeviation="2"/>
<feComposite in2="hardAlpha" operator="out"/>
<feColorMatrix type="matrix" values="0 0 0 0 0 0 0 0 0 0 0 0 0 0 0 0 0 0 0.25 0"/>
<feBlend mode="normal" in2="BackgroundImageFix" result="effect1_dropShadow_12_2"/>
<feBlend mode="normal" in="SourceGraphic" in2="effect1_dropShadow_12_2" result="shape"/>
</filter>
<radialGradient id="paint0_radial_12_2" cx="0" cy="0" r="1" gradientUnits="userSpaceOnUse" gradientTransform="translate(238.92 206.482) rotate(-142.393) scale(301.217)">
<stop stop-color="#06B4FF"/>
<stop offset="1" stop-color="#B6E8FD" stop-opacity="0"/>
</radialGradient>
<linearGradient id="paint1_linear_12_2" x1="174.5" y1="102.095" x2="174.5" y2="174.284" gradientUnits="userSpaceOnUse">
<stop offset="0.0438572" stop-color="#8ED6FF"/>
<stop offset="0.891074" stop-color="#C6C6C6" stop-opacity="0"/>
</linearGradient>
</defs>
</svg>
